<?xml version="1.0" standalone="no"?>
<!DOCTYPE svg PUBLIC "-//W3C//DTD SVG 20010904//EN"
 "http://www.w3.org/TR/2001/REC-SVG-20010904/DTD/svg10.dtd">
<svg version="1.0" xmlns="http://www.w3.org/2000/svg"
 width="240.483712pt" height="469.090060pt" viewBox="0 0 240.483712 469.090060"
 preserveAspectRatio="xMidYMid meet">
<metadata>
Created by potrace 1.12, written by Peter Selinger 2001-2015
</metadata>
<g transform="translate(-7.261442,489.916751) scale(0.100000,-0.100000)"
fill="#000000" stroke="none">
<path d="M1442 4871 c-15 -16 -39 -43 -53 -60 -22 -26 -34 -31 -69 -31 -27 0
-51 7 -67 20 -27 21 -73 27 -73 10 0 -5 17 -18 38 -29 22 -11 54 -43 80 -80
44 -62 45 -69 11 -51 -26 14 -24 2 4 -20 12 -10 19 -22 15 -26 -5 -4 -34 18
-67 49 -32 31 -70 59 -85 63 -39 9 -75 -3 -88 -31 -16 -36 6 -79 64 -121 64
-47 82 -83 74 -146 -4 -27 -3 -48 3 -48 14 0 21 27 21 82 0 53 -13 71 -108
150 -49 40 -40 98 16 98 26 0 145 -106 136 -121 -3 -5 -22 -9 -42 -10 l-37 -1
45 -10 c58 -13 60 -15 30 -40 l-25 -20 25 6 c14 3 30 6 36 6 7 0 14 9 17 20 3
11 10 20 16 20 17 0 13 -29 -8 -56 -26 -33 -91 -234 -76 -234 2 0 21 34 40 75
20 42 42 75 50 75 12 0 11 -10 -7 -52 -42 -105 -59 -161 -56 -192 3 -28 7 -22
37 49 18 44 44 92 58 107 26 27 32 58 19 93 -8 20 -7 20 8 1 9 -11 16 -38 16
-61 0 -35 -9 -53 -54 -113 -64 -84 -78 -133 -80 -271 0 -80 3 -104 22 -145 12
-27 22 -50 22 -52 0 -14 -35 1 -70 31 -32 27 -51 35 -81 35 -47 0 -49 -5 -9
-25 77 -40 0 -48 -85 -9 -47 22 -66 25 -108 21 -61 -8 -88 -27 -36 -27 49 0
111 -19 106 -33 -2 -8 -24 -11 -63 -10 -32 2 -91 4 -131 5 -89 4 -122 -16 -46
-27 108 -14 96 -46 -17 -44 -43 1 -95 -5 -117 -12 l-38 -13 38 -11 c21 -6 39
-15 40 -20 1 -6 -35 -18 -81 -27 -91 -20 -123 -34 -171 -74 -45 -38 -38 -44
17 -17 53 26 132 35 139 16 3 -7 -13 -17 -39 -23 -59 -17 -150 -64 -193 -101
-44 -39 -45 -54 -3 -29 37 21 117 42 131 33 5 -3 -11 -16 -34 -30 -97 -55
-203 -154 -222 -206 -6 -16 -4 -16 23 3 16 11 32 26 36 31 4 6 29 21 56 34 47
22 78 24 78 5 0 -5 -44 -53 -99 -107 -104 -103 -166 -189 -187 -259 -18 -60
-5 -62 27 -6 54 96 124 134 176 97 21 -15 23 -14 42 22 45 89 111 104 125 28
8 -40 31 -47 42 -12 15 51 74 78 88 41 8 -21 -2 -33 -13 -15 -17 27 -45 7 -56
-39 -10 -41 -14 -45 -40 -45 -25 0 -32 6 -41 33 -19 58 -31 60 -56 6 -30 -63
-77 -88 -166 -89 -54 0 -60 -2 -45 -13 13 -10 41 -13 103 -9 l85 6 -41 -19
c-22 -11 -69 -23 -105 -28 l-64 -9 40 -8 c25 -5 66 -4 109 4 105 18 103 1 -4
-40 -68 -26 -172 -42 -225 -35 -36 5 -38 5 -22 -8 27 -21 125 -29 197 -16 127
23 211 71 259 150 17 27 35 50 41 50 16 0 12 -19 -11 -51 -24 -34 -18 -37 22
-8 39 28 62 74 55 111 -5 26 -4 27 14 18 29 -16 50 -12 85 14 18 14 44 28 58
32 23 5 28 2 38 -22 9 -23 8 -38 -4 -74 -20 -54 -13 -64 18 -27 29 33 45 86
45 150 0 58 24 110 48 105 13 -3 17 -14 16 -46 0 -23 3 -42 7 -42 14 0 23 44
20 97 -2 43 1 53 19 63 17 9 26 6 56 -17 30 -24 34 -32 29 -60 -7 -41 17 -58
55 -38 32 17 120 110 120 127 -1 7 -11 1 -23 -14 -28 -34 -77 -54 -89 -36 -4
7 -8 20 -8 29 0 9 -7 20 -16 23 -15 6 -15 8 1 26 12 14 18 39 20 85 2 58 0 67
-19 77 -20 11 -20 11 -1 19 24 8 57 3 103 -18 19 -8 36 -12 39 -9 11 11 -18
34 -69 56 -42 18 -61 21 -107 15 -85 -11 -105 -39 -57 -84 24 -23 41 -61 26
-61 -4 0 -15 11 -24 25 -9 14 -22 25 -30 25 -7 0 -21 9 -31 20 -10 11 -26 20
-37 20 -10 0 -18 4 -18 10 0 18 44 38 98 45 58 8 67 20 22 30 -68 15 -145 -26
-181 -96 -25 -49 -14 -69 36 -67 37 1 85 -25 85 -46 0 -8 -15 -23 -33 -34 -18
-10 -62 -57 -98 -103 -73 -95 -103 -109 -133 -65 -12 20 -25 26 -51 26 -35 0
-35 0 -35 46 0 35 12 70 47 143 56 115 116 180 183 200 25 7 53 20 63 29 19
17 74 27 232 42 78 8 103 14 119 30 l20 20 -26 0 c-38 0 -43 16 -8 24 18 3 30
12 30 21 0 21 17 19 30 -5 12 -22 32 -28 24 -6 -4 9 7 15 37 20 103 17 200 90
241 184 26 58 21 159 -10 223 -27 56 -111 144 -124 131 -6 -6 -4 -21 6 -40 25
-48 20 -92 -14 -132 -41 -47 -39 -65 3 -40 40 25 70 26 65 3 -2 -9 -33 -33
-69 -52 -116 -63 -129 -85 -30 -51 77 25 114 27 109 3 -4 -24 -79 -60 -153
-74 -33 -7 -64 -16 -70 -21 -6 -7 1 -8 20 -4 34 7 85 -4 85 -19 0 -5 -20 -17
-44 -25 -24 -8 -51 -21 -60 -29 -14 -11 -17 -10 -27 15 -20 53 -31 139 -26
198 7 73 18 86 46 50 l21 -27 0 49 c0 48 15 81 53 118 12 12 17 33 17 70 0 89
32 96 125 26 28 -21 74 -45 104 -55 68 -22 101 -54 101 -95 0 -38 16 -31 25
10 4 17 10 30 15 30 16 0 138 -128 175 -182 36 -55 84 -176 85 -213 0 -15 3
-16 12 -7 18 18 -4 128 -40 205 -37 79 -111 176 -169 225 -26 20 -116 73 -202
117 -132 68 -157 84 -159 105 -2 14 -9 31 -14 38 -6 7 -8 15 -5 18 3 3 14 -7
24 -23 22 -34 41 -50 71 -58 12 -3 56 -26 98 -51 42 -24 79 -43 81 -41 8 9
-89 85 -149 117 -34 19 -56 36 -49 38 7 2 40 -9 72 -26 32 -17 59 -27 59 -23
0 12 -94 79 -121 86 -15 4 -39 20 -55 36 l-28 29 40 1 c38 1 39 1 12 12 -36
14 -35 23 5 66 l32 34 -37 -22 c-42 -25 -46 -22 -22 14 14 22 14 28 -2 79 -20
64 -11 99 31 118 63 29 108 -38 124 -186 14 -121 37 -169 93 -189 30 -11 27 5
-5 27 -37 25 -49 60 -66 184 -12 99 -34 148 -75 173 -40 24 -67 24 -99 -1 -37
-29 -48 -68 -31 -116 17 -49 17 -74 0 -96 -20 -27 -26 -22 -26 22 0 50 -15 52
-27 3 -6 -28 -14 -39 -31 -41 -12 -2 -22 0 -22 5 0 4 -11 22 -25 38 l-25 30 2
-37 c3 -39 -15 -70 -30 -52 -15 17 -35 92 -29 109 10 24 56 9 90 -29 28 -30
28 -30 23 -6 -20 82 -18 104 13 153 34 52 24 63 -17 18z m98 -297 c0 -9 -7
-14 -17 -12 -25 5 -28 28 -4 28 12 0 21 -6 21 -16z m-46 -30 c16 -6 23 -34 8
-34 -10 0 -32 22 -32 32 0 10 3 10 24 2z m-74 -49 c0 -8 -4 -15 -9 -15 -5 0
-11 7 -15 15 -3 9 0 15 9 15 8 0 15 -7 15 -15z"/>
<path d="M1757 4163 c-11 -17 10 -71 46 -121 67 -91 85 -154 67 -222 -9 -33
-21 -47 -68 -78 -33 -22 -65 -53 -77 -74 -19 -35 -19 -38 -2 -92 10 -31 22
-56 28 -56 12 0 12 5 -8 59 -22 62 -7 92 71 146 35 23 65 53 72 70 28 65 12
147 -41 222 -34 46 -53 81 -72 132 -5 14 -12 20 -16 14z"/>
<path d="M1758 3975 c-6 -72 -38 -136 -88 -179 -24 -20 -29 -30 -24 -51 8 -32
12 -31 62 5 57 41 83 96 83 174 0 54 -13 116 -24 116 -3 0 -7 -29 -9 -65z"/>
<path d="M286 3523 c13 -66 -2 -99 -64 -140 -53 -36 -57 -41 -53 -73 7 -74 6
-103 -6 -107 -7 -3 -13 10 -15 34 -2 30 -10 42 -37 60 -19 13 -36 21 -38 19
-2 -2 7 -20 21 -41 24 -35 24 -39 11 -66 -20 -38 -19 -66 5 -86 11 -10 20 -30
20 -45 0 -33 29 -51 65 -42 40 10 54 39 48 98 -5 53 9 82 79 168 27 34 16 49
-15 21 -28 -26 -50 -33 -67 -23 -17 11 -6 26 43 57 53 33 57 39 57 90 0 34 -6
50 -30 75 l-30 33 6 -32z"/>
<path d="M633 2820 c-37 -15 -39 -53 -7 -118 51 -101 246 -230 481 -316 301
-112 485 -231 590 -383 36 -53 38 -59 38 -137 0 -101 -27 -159 -109 -233 -66
-60 -148 -96 -277 -119 -115 -21 -232 -10 -384 36 -104 31 -150 36 -175 20
-12 -8 -11 -10 7 -10 34 0 94 -32 91 -48 -2 -11 -32 -14 -145 -16 -94 0 -146
-5 -154 -13 -9 -9 3 -14 50 -24 68 -13 72 -22 23 -55 -21 -15 -53 -23 -105
-27 -72 -5 -177 -40 -177 -58 0 -5 27 -9 59 -9 33 0 62 -4 65 -9 3 -5 -30 -36
-73 -71 -94 -73 -126 -116 -142 -188 -12 -59 -5 -82 11 -36 16 47 34 76 53 88
26 16 50 -18 42 -59 -3 -16 -8 -68 -11 -115 l-5 -85 23 43 c12 23 25 42 29 42
10 0 19 -39 19 -86 0 -26 8 -53 23 -74 34 -51 45 -48 39 10 -4 40 -1 50 10 50
21 0 39 -24 88 -117 24 -45 53 -94 66 -110 l23 -28 -6 47 c-3 26 -2 59 1 74
11 42 30 14 56 -81 12 -44 29 -93 38 -110 l15 -30 10 25 c5 14 13 35 18 48 10
26 35 29 48 5 5 -10 9 -40 8 -68 0 -49 19 -101 51 -137 23 -27 29 -22 28 24
-1 59 25 64 53 10 30 -59 121 -136 121 -102 0 6 -4 10 -9 10 -13 0 -51 63 -51
84 0 34 31 28 109 -23 89 -59 166 -91 214 -91 l32 1 -46 24 c-49 26 -71 55
-41 55 9 -1 46 -7 82 -15 77 -17 164 -20 155 -5 -3 6 -14 10 -23 10 -9 0 -35
9 -57 20 l-40 20 60 -5 c33 -3 78 -7 100 -10 l40 -6 -29 16 c-44 26 -18 40 72
40 76 0 80 -1 237 -77 241 -117 347 -136 438 -78 26 16 47 34 47 39 0 6 -16
-1 -36 -14 -45 -30 -117 -33 -202 -9 -73 21 -120 45 -195 100 -51 37 -134 78
-221 108 -15 5 -4 14 50 40 41 20 84 50 107 75 47 52 42 64 -10 23 -60 -48
-137 -82 -221 -98 -42 -8 -103 -19 -135 -24 -32 -6 -65 -14 -74 -17 -11 -4
-14 -2 -11 8 2 8 39 32 82 54 55 28 84 50 99 74 22 36 12 36 -28 0 -11 -9 -73
-43 -138 -74 -98 -48 -128 -58 -185 -62 -169 -12 -372 93 -554 287 -159 168
-232 342 -198 465 26 92 148 160 369 206 106 22 251 25 269 7 19 -19 14 -77
-9 -109 -11 -16 -16 -29 -10 -29 29 0 70 27 122 82 52 53 65 61 104 66 44 4
45 4 45 -23 0 -21 -13 -41 -47 -73 -45 -43 -45 -45 -17 -38 58 14 108 60 179
166 50 75 80 110 105 122 20 10 38 14 43 9 5 -5 7 -34 5 -65 -4 -67 6 -67 47
-1 29 47 30 53 29 163 l0 114 33 -4 c21 -3 33 0 33 8 0 28 -33 101 -70 155
-22 32 -40 61 -40 64 0 12 38 3 69 -16 18 -11 35 -18 37 -16 9 9 -70 78 -136
119 -38 23 -70 46 -70 50 0 17 56 19 117 4 37 -9 68 -14 71 -12 10 11 -104 57
-199 81 -108 28 -159 51 -159 72 0 19 78 16 150 -6 71 -22 76 -8 9 26 -58 29
-150 51 -279 66 -103 12 -105 13 -108 39 -3 23 2 28 35 37 21 6 49 11 63 12
25 1 25 1 -3 9 -43 13 -106 15 -183 6 -123 -14 -188 34 -104 77 27 14 52 17
107 15 61 -3 70 -1 59 10 -7 7 -42 18 -77 24 -57 10 -76 9 -164 -12 -119 -29
-169 -31 -191 -8 -16 16 -16 19 0 43 24 36 54 45 154 45 68 1 83 3 68 12 -34
19 -138 22 -198 4 -71 -20 -117 -21 -124 -1 -9 23 4 62 22 69 25 9 30 -1 11
-22 -31 -34 -22 -45 31 -37 26 3 58 9 71 12 l25 6 -30 24 -29 25 38 -7 c49 -8
47 1 -5 25 -46 21 -154 26 -195 10z"/>
<path d="M497 2759 c-24 -13 -35 -24 -30 -32 47 -80 205 -243 293 -303 73 -50
175 -98 330 -154 208 -76 307 -120 388 -173 284 -190 218 -432 -153 -553 -80
-26 -69 -31 23 -9 271 64 420 255 337 432 -66 142 -233 255 -577 389 -308 120
-468 229 -545 370 l-28 52 -38 -19z"/>
<path d="M825 2660 c-24 -27 -13 -54 20 -46 13 3 52 9 85 13 33 3 60 10 60 14
0 16 -60 39 -103 39 -31 0 -49 -6 -62 -20z"/>
<path d="M1076 2567 c-30 -22 -14 -51 25 -43 18 3 48 6 67 6 l36 0 -20 20
c-27 27 -83 36 -108 17z"/>
<path d="M1285 2449 c-9 -14 -7 -16 45 -24 l45 -7 -19 21 c-20 22 -60 28 -71
10z"/>
<path d="M638 2370 c-36 -11 -88 -42 -88 -53 0 -5 8 -6 18 -2 9 3 38 9 64 12
45 5 48 4 58 -23 6 -16 20 -38 30 -49 10 -11 21 -31 25 -45 7 -24 7 -24 -11
-9 -11 9 -27 19 -36 22 -9 3 -18 18 -20 34 -7 63 -91 29 -123 -49 -17 -43 -9
-48 36 -21 27 16 30 16 58 -5 17 -12 36 -22 43 -22 7 0 22 -7 32 -15 11 -8 27
-15 36 -15 8 0 20 -13 26 -28 10 -27 81 -72 112 -72 15 0 15 -15 -3 -65 -8
-21 -13 -41 -11 -42 2 -2 22 17 45 42 32 35 41 52 41 80 0 36 -4 38 -50 36
-20 -2 -29 6 -43 33 -16 34 -16 36 1 37 68 4 129 -21 159 -67 12 -19 24 -24
59 -24 23 0 46 -4 49 -10 3 -5 38 -10 77 -10 l72 0 -27 28 c-40 42 -36 56 17
50 55 -7 156 -53 219 -102 67 -51 70 -39 5 18 -64 56 -201 125 -320 162 -90
27 -125 26 -114 -2 3 -9 9 -27 12 -40 8 -32 -15 -32 -45 0 -32 34 -111 66
-188 75 -81 10 -104 32 -100 101 l2 45 -45 2 c-25 1 -57 -2 -72 -7z"/>
<path d="M2195 2286 c-22 -7 -58 -22 -80 -34 -94 -49 -134 -169 -44 -132 36
15 70 -3 89 -50 12 -29 11 -33 -16 -61 -21 -22 -31 -45 -39 -97 -11 -65 -12
-67 -41 -67 -26 0 -33 8 -74 87 -25 48 -61 104 -80 124 -33 33 -127 90 -136
81 -2 -2 22 -21 54 -43 56 -39 102 -104 102 -146 0 -25 -13 -23 -48 7 -39 33
-59 32 -33 -1 30 -39 61 -129 61 -180 0 -71 -31 -112 -44 -59 -11 43 -26 27
-26 -27 0 -32 -10 -76 -24 -110 -13 -32 -21 -58 -17 -58 23 2 129 92 151 130
32 54 51 60 80 23 22 -28 24 -72 5 -118 -6 -15 -1 -13 24 10 40 37 53 59 60
105 6 31 10 35 39 38 17 2 32 4 32 5 0 1 -7 24 -15 51 -22 73 -19 118 8 144
13 12 29 22 35 22 16 0 62 -41 62 -54 0 -6 9 -17 20 -24 16 -10 18 -16 10 -32
-7 -14 -6 -23 6 -34 18 -19 20 -19 45 -6 26 15 69 102 69 142 l0 33 -20 -33
c-11 -18 -27 -35 -36 -39 -19 -7 -56 35 -74 85 -10 29 -9 35 4 45 12 9 16 25
14 62 l-3 50 35 -3 c19 -2 55 -12 79 -23 56 -25 59 -24 31 6 -44 47 -110 77
-177 81 -37 3 -64 0 -68 -7 -4 -5 5 -28 20 -49 25 -36 27 -60 4 -60 -6 0 -19
20 -30 45 -13 29 -31 51 -51 61 l-32 16 60 54 c32 29 57 53 54 53 -3 0 -23 -6
-45 -13z"/>
<path d="M1350 2056 c0 -2 16 -13 35 -25 19 -11 35 -27 35 -36 0 -19 -36 -19
-70 0 -30 17 -120 20 -120 4 0 -6 9 -24 21 -40 11 -16 17 -33 14 -39 -9 -15
-53 -12 -81 6 -28 19 -134 46 -134 35 0 -4 16 -13 35 -20 20 -7 53 -34 77 -63
24 -27 55 -56 70 -64 32 -16 101 -18 129 -4 18 10 18 13 4 47 -26 61 -22 67
39 59 73 -8 84 -14 101 -47 19 -36 19 -62 -1 -102 l-15 -32 35 37 c29 31 36
45 36 78 0 81 -53 146 -153 189 -51 22 -57 24 -57 17z"/>
<path d="M1005 1405 c-232 -37 -359 -101 -401 -201 -31 -73 -6 -203 52 -269
18 -21 24 -24 19 -10 -35 101 -45 198 -24 252 15 40 57 81 109 108 61 31 198
64 293 72 77 6 112 22 104 47 -5 16 -59 16 -152 1z"/>
</g>
</svg>
