<?xml version="1.0" standalone="no"?>
<!DOCTYPE svg PUBLIC "-//W3C//DTD SVG 20010904//EN"
 "http://www.w3.org/TR/2001/REC-SVG-20010904/DTD/svg10.dtd">
<svg version="1.0" xmlns="http://www.w3.org/2000/svg"
 width="481.847349pt" height="938.895711pt" viewBox="0 0 481.847349 938.895711"
 preserveAspectRatio="xMidYMid meet">
<metadata>
Created by potrace 1.12, written by Peter Selinger 2001-2015
</metadata>
<g transform="translate(-13.152651,979.895711) scale(0.100000,-0.100000)"
fill="#000000" stroke="none">
<path d="M2905 9777 c-40 -29 -58 -51 -100 -119 -49 -78 -84 -98 -172 -98 -60
0 -75 4 -109 28 -73 52 -148 69 -173 39 -13 -17 11 -41 50 -50 60 -15 100 -56
232 -237 37 -50 42 -86 9 -57 -25 21 -82 49 -82 39 0 -4 25 -32 55 -62 53 -52
64 -81 23 -59 -11 6 -63 54 -114 106 -92 92 -171 143 -223 143 -68 0 -141 -68
-141 -132 0 -65 37 -116 143 -196 126 -95 142 -122 140 -232 -1 -47 -3 -101
-5 -120 -4 -49 22 -46 46 5 13 28 19 62 19 116 0 113 -29 160 -159 260 -138
106 -163 161 -104 221 28 27 35 30 72 24 51 -8 111 -50 167 -115 24 -29 61
-64 82 -78 59 -39 51 -51 -41 -59 -44 -3 -80 -10 -80 -13 0 -4 37 -14 82 -22
98 -17 109 -33 47 -68 -57 -32 -39 -47 37 -30 67 14 78 21 79 51 0 26 26 44
51 34 14 -5 15 -9 5 -15 -8 -5 -11 -17 -6 -30 5 -16 -1 -27 -25 -47 -40 -34
-49 -53 -106 -219 -41 -123 -52 -162 -66 -237 -2 -9 2 -18 7 -19 6 -1 39 57
76 130 69 139 103 186 118 163 10 -16 -4 -57 -62 -189 -24 -54 -49 -118 -56
-143 -7 -25 -17 -55 -22 -68 -11 -28 -12 -152 -1 -152 10 0 66 122 117 255 17
46 41 86 70 115 75 78 80 107 39 195 -20 42 -24 59 -15 68 8 8 11 7 11 -4 0
-8 14 -41 30 -72 23 -45 30 -71 30 -115 0 -68 -14 -94 -126 -242 -103 -136
-144 -241 -144 -373 0 -34 -5 -91 -11 -127 -16 -99 16 -260 77 -384 14 -27 23
-50 22 -52 -2 -1 -23 3 -47 9 -32 9 -53 24 -79 55 -20 24 -48 50 -63 57 -35
19 -127 29 -173 21 -38 -7 -50 -26 -16 -26 36 0 110 -52 110 -77 0 -9 -15 -13
-50 -13 -37 0 -71 10 -132 39 -110 52 -180 65 -283 50 -73 -10 -134 -33 -122
-46 3 -3 43 -7 89 -9 106 -5 172 -20 194 -45 9 -10 15 -20 13 -22 -38 -22 -60
-27 -132 -27 -46 0 -87 4 -92 8 -47 41 -289 36 -355 -7 l-24 -16 49 -7 c169
-22 215 -35 215 -58 0 -22 -47 -30 -177 -30 -143 0 -233 -14 -278 -44 -37 -24
-31 -36 20 -36 54 0 119 -24 113 -42 -5 -13 -35 -22 -118 -38 -190 -35 -182
-32 -291 -85 -81 -39 -195 -143 -176 -161 2 -2 42 16 88 40 92 47 121 55 221
63 57 4 69 2 74 -12 8 -20 -6 -31 -61 -46 -22 -6 -49 -15 -60 -19 -11 -4 -47
-18 -80 -31 -120 -46 -235 -119 -300 -191 -45 -50 -52 -83 -12 -53 82 60 279
117 308 88 9 -9 -5 -20 -51 -43 -110 -55 -339 -233 -397 -307 -37 -47 -83
-126 -83 -141 0 -22 18 -12 87 51 67 59 185 128 246 143 29 7 67 -17 67 -42 0
-7 -42 -46 -92 -88 -104 -83 -132 -111 -243 -241 -85 -100 -173 -227 -203
-295 -36 -84 -41 -99 -48 -150 -8 -59 7 -67 34 -19 79 144 154 235 219 266 18
8 56 16 83 16 41 1 55 -4 78 -26 34 -33 52 -28 71 16 26 59 90 145 124 166 65
40 137 18 137 -42 0 -17 7 -51 16 -74 13 -33 22 -43 39 -43 17 0 24 9 35 51
10 35 25 60 52 84 51 47 86 55 110 25 10 -12 18 -30 18 -40 0 -10 17 -36 38
-59 60 -68 131 -69 199 -5 45 44 89 64 138 64 32 0 38 -4 52 -37 20 -49 11
-132 -22 -191 -29 -52 -31 -72 -9 -72 24 0 77 62 109 127 24 49 28 73 32 168
6 151 33 241 80 266 40 21 58 2 58 -62 0 -30 -3 -66 -8 -81 -6 -24 -4 -28 13
-28 48 0 76 135 49 233 -15 55 -5 73 48 88 44 12 47 12 67 -13 12 -14 35 -33
53 -43 40 -23 59 -65 44 -93 -6 -12 -11 -35 -11 -52 0 -25 6 -33 34 -46 32
-16 35 -15 78 10 60 35 233 214 242 250 9 38 2 43 -21 15 -57 -73 -99 -107
-142 -114 -50 -8 -71 8 -71 55 0 26 -32 70 -50 70 -6 0 -10 7 -10 15 0 8 5 15
10 15 6 0 22 11 35 24 21 21 24 31 19 69 -4 25 -2 52 3 62 7 12 7 27 -1 47 -8
21 -7 33 2 48 6 11 12 28 12 39 0 19 -39 51 -63 51 -8 0 -20 6 -26 14 -17 21
7 26 98 21 61 -4 91 -12 137 -35 69 -35 84 -37 84 -11 0 34 -76 85 -197 131
-30 11 -78 10 -213 -6 -123 -14 -143 -77 -52 -164 35 -33 51 -57 55 -81 9 -62
-15 -60 -48 5 -15 29 -31 43 -64 56 -24 9 -47 24 -53 33 -12 22 -61 47 -92 47
-36 0 -39 14 -8 43 38 36 82 52 190 68 97 14 118 30 65 50 -46 18 -201 6 -249
-19 -76 -39 -184 -180 -184 -240 0 -11 12 -30 26 -41 20 -16 35 -19 69 -14 53
7 107 -10 151 -49 48 -43 44 -60 -25 -102 -71 -43 -109 -84 -226 -243 -95
-130 -129 -157 -185 -151 -29 2 -38 9 -52 38 -25 49 -44 60 -104 60 -34 0 -58
5 -68 16 -19 18 -21 41 -5 46 8 3 8 15 -1 45 -11 35 -10 47 2 75 9 18 28 62
44 98 41 95 101 207 146 275 43 63 130 160 162 177 30 16 150 58 167 58 9 0
37 18 62 40 44 39 46 40 124 40 58 0 86 5 108 18 50 31 74 35 230 42 83 4 167
12 188 18 46 12 77 38 77 63 0 15 -10 19 -52 21 -63 4 -75 23 -18 31 59 8 92
32 84 61 -10 42 13 37 39 -7 29 -48 51 -71 67 -65 6 2 4 14 -5 32 -21 40 -19
47 11 40 24 -6 110 8 159 25 97 35 186 90 256 160 70 71 96 111 153 240 6 13
10 78 10 145 -1 105 -5 130 -28 191 -15 39 -43 95 -64 125 -48 71 -187 213
-203 208 -33 -11 -33 -36 -1 -99 27 -51 32 -73 32 -129 0 -61 -2 -68 -31 -96
-44 -41 -89 -109 -89 -133 0 -27 4 -26 45 5 39 29 124 63 143 57 22 -8 13 -50
-17 -76 -16 -13 -77 -48 -135 -77 -109 -55 -166 -98 -166 -124 0 -21 12 -20
68 7 26 13 66 29 90 35 23 7 59 17 80 23 53 15 106 8 110 -14 10 -49 -100
-107 -298 -157 -25 -6 -59 -16 -76 -21 -17 -5 -40 -9 -52 -9 -11 0 -24 -4 -27
-10 -4 -6 21 -10 67 -10 75 0 159 -19 165 -37 6 -16 -17 -28 -111 -57 -52 -17
-99 -38 -113 -52 -13 -13 -26 -24 -28 -24 -6 0 -42 121 -54 180 -29 150 -34
217 -22 281 18 93 33 139 45 139 6 0 26 -23 45 -50 34 -51 68 -69 56 -29 -4
11 -7 54 -7 95 1 86 26 141 88 193 42 34 52 73 53 197 1 56 5 75 21 92 38 41
79 25 228 -85 65 -49 108 -73 145 -82 143 -36 256 -116 258 -184 1 -18 4 -45
8 -61 6 -28 7 -29 23 -13 9 9 20 42 23 72 4 30 10 57 14 60 13 7 168 -132 244
-219 40 -47 94 -115 120 -153 44 -65 117 -210 117 -232 0 -6 6 -30 14 -53 17
-55 33 -115 41 -152 8 -36 23 -23 35 28 8 36 -15 184 -42 271 -50 162 -239
439 -378 555 -94 77 -157 115 -395 233 -121 60 -248 125 -282 145 -63 36 -63
36 -63 82 0 29 -7 54 -20 70 -11 14 -20 31 -20 39 0 22 28 -6 65 -64 39 -60
59 -78 105 -95 19 -7 51 -19 70 -27 41 -18 268 -150 291 -170 18 -15 39 -17
39 -4 0 15 -79 93 -140 137 -54 40 -228 144 -262 157 -10 3 -18 13 -18 22 0
17 25 21 35 5 3 -5 12 -10 19 -10 7 0 59 -25 116 -55 56 -31 106 -53 109 -49
8 9 -112 118 -164 148 -23 14 -67 35 -96 46 -53 20 -139 88 -139 109 0 7 27
11 70 11 79 0 91 13 28 31 -24 6 -49 13 -55 15 -28 8 -10 44 52 103 36 35 65
67 65 72 0 5 -32 -12 -70 -37 -76 -51 -97 -52 -57 -4 41 48 44 89 13 182 -14
43 -26 96 -26 116 0 52 32 98 84 124 44 21 46 21 85 4 72 -33 117 -102 141
-216 6 -30 15 -74 21 -98 5 -23 9 -72 9 -109 0 -37 5 -82 10 -100 6 -18 15
-50 21 -70 19 -63 66 -121 118 -148 42 -21 51 -22 67 -10 22 16 20 19 -37 48
-23 12 -51 33 -61 47 -28 38 -58 130 -58 175 0 116 -36 299 -77 393 -34 77
-124 142 -195 142 -89 -1 -181 -91 -182 -177 -1 -47 19 -128 36 -147 4 -6 8
-32 8 -59 0 -39 -6 -55 -32 -88 -17 -21 -34 -39 -38 -39 -4 0 -5 36 -2 80 4
69 2 81 -13 86 -21 9 -29 -4 -44 -70 -13 -57 -50 -103 -75 -93 -8 3 -36 38
-61 76 -26 39 -51 71 -56 71 -5 0 -9 -35 -9 -78 0 -73 -2 -80 -24 -91 -36 -19
-62 -1 -64 44 -1 20 -5 41 -9 48 -15 23 -33 82 -33 109 0 32 29 44 87 35 40
-7 72 -33 115 -94 49 -72 59 -52 27 52 -6 22 -14 67 -16 101 -5 72 17 128 78
198 31 35 36 45 23 50 -23 9 -26 8 -59 -17z m33 -569 c19 -19 14 -28 -18 -28
-16 0 -30 4 -30 8 0 9 21 32 30 32 3 0 11 -5 18 -12z m130 -60 c4 -35 -21 -38
-55 -6 -32 30 -29 40 15 36 32 -3 37 -7 40 -30z m-238 3 c0 -13 -29 -35 -37
-28 -7 8 15 37 28 37 5 0 9 -4 9 -9z m157 -66 c22 -11 32 -24 35 -45 3 -17 0
-30 -6 -30 -15 0 -76 62 -76 77 0 17 10 16 47 -2z m-147 -84 c0 -26 -10 -51
-20 -51 -7 0 -40 55 -40 67 0 1 14 3 30 3 23 0 30 -5 30 -19z"/>
<path d="M3500 8308 c0 -57 45 -156 114 -248 59 -80 88 -133 105 -190 34 -119
38 -161 22 -202 -5 -13 -12 -35 -15 -50 -9 -41 -56 -89 -130 -132 -79 -46
-142 -106 -162 -154 -21 -52 -17 -128 11 -207 29 -80 49 -105 66 -88 9 9 7 25
-9 65 -41 101 -47 142 -31 190 19 58 66 108 146 154 90 52 136 99 156 162 31
94 16 245 -36 346 -11 23 -48 79 -82 126 -66 90 -95 142 -95 170 0 9 -5 31
-11 49 -13 37 -49 44 -49 9z"/>
<path d="M3502 7963 c-3 -117 -6 -133 -32 -188 -33 -69 -89 -139 -152 -191
-24 -20 -43 -42 -42 -48 2 -42 19 -96 30 -96 20 0 115 58 152 93 41 39 92 118
111 171 17 50 18 229 1 282 -22 70 -39 104 -52 104 -10 0 -14 -33 -16 -127z"/>
<path d="M565 7064 c22 -53 19 -140 -8 -194 -18 -36 -37 -54 -102 -93 -143
-87 -155 -109 -115 -217 25 -68 25 -111 2 -141 -26 -31 -56 -20 -42 16 17 45
11 79 -21 118 -33 40 -95 77 -129 77 -29 0 -25 -11 19 -54 21 -20 44 -55 51
-77 12 -36 12 -44 -4 -67 -45 -71 -50 -89 -36 -132 8 -23 26 -52 42 -65 24
-20 28 -31 28 -73 0 -69 30 -97 104 -96 66 1 101 23 128 82 18 38 20 49 10 76
-7 18 -12 57 -12 87 0 48 6 65 45 128 25 40 64 93 87 117 49 51 77 109 60 126
-8 8 -27 -4 -68 -41 -49 -45 -62 -52 -92 -49 -21 2 -39 10 -46 21 -9 16 -5 23
23 47 19 16 51 37 70 46 98 46 123 84 123 189 0 62 -4 77 -31 122 -49 79 -114
115 -86 47z"/>
<path d="M1263 6090 c-12 -10 -24 -30 -28 -42 -39 -147 -39 -148 -86 -148 -41
0 -75 31 -85 79 -20 91 -41 116 -74 86 -10 -9 -25 -37 -35 -63 -9 -26 -21 -59
-27 -74 -27 -71 -247 -146 -351 -120 -86 22 -106 7 -37 -28 31 -16 59 -20 129
-20 49 0 100 4 113 9 13 4 43 11 66 15 58 9 53 -11 -12 -42 -59 -29 -177 -52
-261 -52 -69 0 -92 -14 -50 -30 39 -15 220 -12 300 5 89 19 115 19 115 0 0 -9
-27 -28 -67 -46 -194 -89 -246 -101 -460 -106 -90 -2 -163 -7 -163 -11 0 -9
50 -32 70 -32 9 0 21 -5 28 -12 17 -17 301 -16 372 1 243 60 395 158 484 310
44 74 66 98 80 84 14 -15 4 -49 -29 -94 -19 -27 -35 -54 -35 -59 0 -32 148 88
176 142 17 33 18 141 2 169 -24 39 -83 99 -99 99 -8 0 -25 -9 -36 -20z"/>
<path d="M1307 5655 c-112 -31 -130 -73 -87 -197 16 -45 41 -100 57 -122 41
-58 156 -152 318 -260 247 -165 374 -228 650 -320 212 -72 460 -187 642 -300
293 -181 525 -423 576 -602 13 -48 14 -195 0 -250 -47 -195 -242 -409 -438
-483 -33 -13 -69 -27 -80 -31 -11 -5 -31 -11 -45 -15 -14 -3 -41 -11 -60 -16
-215 -62 -519 -62 -770 1 -25 6 -57 14 -73 17 -15 3 -30 9 -33 14 -3 5 -15 9
-26 9 -21 0 -70 14 -113 31 -68 28 -148 32 -247 13 -39 -8 -35 -24 5 -24 39 0
132 -33 167 -59 34 -25 36 -47 6 -67 -23 -14 -30 -15 -59 -3 -44 19 -349 19
-432 0 -131 -29 -151 -43 -83 -54 18 -3 60 -11 94 -16 120 -20 138 -39 83 -85
-66 -56 -108 -69 -284 -85 -49 -5 -108 -13 -130 -18 -82 -19 -201 -85 -190
-104 4 -5 57 -9 119 -9 77 0 118 -4 130 -13 17 -12 14 -16 -30 -54 -27 -22
-80 -64 -119 -93 -170 -128 -252 -235 -279 -364 -18 -90 -20 -136 -6 -136 11
0 13 6 51 105 24 66 59 119 89 135 15 8 25 4 50 -17 31 -26 32 -28 26 -92 -3
-36 -10 -93 -16 -126 -16 -86 -24 -295 -11 -295 13 0 22 15 43 74 33 93 71
124 82 69 3 -16 8 -75 12 -133 6 -119 14 -137 93 -214 56 -55 72 -55 47 -1
-23 47 -23 152 -2 174 15 14 19 12 50 -19 19 -19 58 -80 86 -135 85 -162 156
-281 199 -327 28 -32 47 -37 36 -11 -4 10 -14 46 -22 80 -24 105 12 221 52
167 14 -19 19 -34 55 -164 54 -194 88 -278 115 -287 6 -2 16 18 24 44 21 77
31 100 57 123 28 27 44 18 75 -42 17 -33 18 -44 8 -83 -23 -89 24 -226 104
-306 47 -47 70 -51 61 -11 -4 15 -11 35 -15 44 -5 9 -9 26 -9 37 0 22 46 81
63 81 7 0 30 -34 52 -76 50 -95 128 -182 195 -217 83 -43 95 -31 30 30 -64 58
-82 94 -78 155 3 45 6 53 23 56 13 2 81 -37 175 -98 148 -97 245 -150 274
-150 7 0 16 -3 20 -7 22 -22 196 -45 196 -25 0 4 -38 27 -85 51 -60 30 -90 52
-101 72 -12 24 -12 30 -2 34 13 5 87 -5 183 -25 86 -17 254 -32 290 -26 38 7
48 26 15 26 -11 0 -28 4 -38 9 -9 5 -48 19 -87 31 -73 23 -95 35 -95 52 0 11
77 5 160 -12 99 -20 215 -38 219 -34 7 6 -21 34 -34 34 -23 0 -76 32 -72 43 2
7 26 20 53 29 53 19 214 25 256 9 13 -5 41 -14 63 -21 52 -16 142 -55 235
-103 305 -159 404 -202 515 -226 28 -6 71 -15 97 -21 26 -5 81 -10 123 -10 95
0 176 34 255 108 60 56 50 71 -16 24 -22 -16 -50 -34 -62 -41 -74 -40 -262
-30 -387 20 -11 4 -49 18 -85 30 -76 26 -132 59 -260 153 -92 68 -187 122
-280 159 -51 21 -80 33 -112 46 -13 6 -38 13 -55 16 -42 8 -42 31 -1 39 38 8
173 75 231 115 74 52 157 157 142 181 -3 5 -43 -20 -88 -56 -90 -71 -248 -154
-342 -179 -65 -18 -146 -31 -265 -45 -72 -8 -106 -15 -195 -40 -62 -17 -70
-17 -73 5 -3 25 65 68 186 115 48 19 97 46 115 64 48 47 107 135 96 141 -5 4
-42 -20 -82 -53 -39 -33 -103 -74 -142 -92 -38 -18 -128 -61 -200 -95 -145
-70 -148 -71 -223 -91 -63 -17 -213 -18 -279 -3 -107 25 -163 41 -208 59 -251
105 -433 229 -651 445 -238 236 -410 508 -456 725 -52 241 20 412 215 507 133
66 199 92 312 123 17 5 48 14 70 20 245 69 573 102 645 65 42 -22 60 -53 60
-105 0 -55 -27 -115 -69 -154 -37 -35 -39 -46 -8 -46 68 0 228 112 291 204 59
86 183 139 247 106 54 -29 -11 -154 -122 -235 -67 -50 -52 -64 32 -30 142 57
209 123 344 341 48 76 101 154 118 173 31 32 122 81 152 81 36 0 41 -61 20
-230 l-6 -45 43 46 c43 45 110 166 124 224 7 27 8 203 2 350 l-3 60 43 3 c24
2 50 -2 58 -9 24 -20 33 2 23 56 -12 68 -75 195 -148 303 -34 49 -61 95 -61
101 0 6 15 11 34 11 24 0 55 -14 102 -45 36 -25 68 -45 70 -45 17 0 -5 39 -52
89 -51 55 -89 83 -292 215 -61 39 -71 50 -62 62 25 29 144 18 303 -29 37 -11
71 -17 75 -13 18 19 -111 92 -223 127 -22 7 -44 17 -49 21 -6 4 -22 8 -37 8
-15 0 -30 4 -33 9 -3 5 -20 11 -38 14 -18 3 -53 11 -78 17 -25 6 -60 14 -78
17 -18 3 -35 9 -38 14 -3 5 -14 9 -24 9 -21 0 -84 32 -112 58 -10 8 -18 24
-18 34 0 18 6 19 93 15 110 -6 167 -16 242 -47 95 -38 114 -37 74 6 -56 60
-203 119 -379 153 -132 25 -336 51 -401 51 -63 0 -85 28 -80 102 2 24 83 48
168 48 105 0 94 18 -29 50 -47 12 -65 12 -383 -6 -90 -5 -106 -4 -147 16 -66
31 -85 54 -68 84 13 26 70 57 136 75 54 15 226 14 259 -1 18 -8 29 -8 36 -1
17 17 -58 62 -127 75 -99 20 -290 13 -349 -12 -44 -19 -257 -63 -300 -62 -52
2 -86 15 -109 43 -21 25 -24 34 -15 57 14 37 37 60 84 86 37 19 55 21 223 21
117 -1 181 3 179 9 -2 6 -28 19 -57 29 -79 27 -278 25 -380 -3 -166 -47 -214
-47 -232 -1 -15 38 -3 103 22 123 22 18 80 25 80 11 -1 -5 -15 -17 -32 -28
-33 -21 -54 -65 -44 -92 7 -16 14 -16 141 8 28 5 71 12 98 15 26 4 47 11 47
16 0 14 -41 47 -72 59 -67 26 -6 39 77 17 84 -23 68 8 -32 57 -108 54 -257 70
-366 40z"/>
<path d="M992 5518 l-72 -40 22 -39 c34 -60 123 -175 213 -274 191 -209 444
-395 665 -488 19 -8 51 -22 70 -30 19 -8 55 -23 80 -32 25 -9 54 -20 65 -25
71 -27 188 -70 230 -85 581 -201 884 -398 1003 -652 24 -52 27 -70 27 -163 0
-103 -1 -106 -40 -180 -94 -177 -322 -334 -610 -421 -22 -6 -50 -15 -63 -20
-13 -5 -33 -9 -46 -9 -13 0 -28 -6 -34 -13 -9 -10 0 -11 46 -5 376 47 705 241
824 485 42 86 43 90 43 193 0 131 -16 178 -111 325 -42 67 -201 218 -294 281
-185 125 -420 243 -705 353 -60 24 -119 47 -130 51 -11 4 -36 13 -55 20 -19 7
-54 21 -77 31 -24 11 -46 19 -50 19 -12 0 -106 44 -230 107 -343 174 -606 416
-672 616 -7 20 -16 37 -19 36 -4 0 -40 -19 -80 -41z"/>
<path d="M1703 5364 c-12 -3 -36 -18 -53 -34 -26 -24 -31 -35 -28 -67 3 -43 1
-43 128 -24 36 5 103 14 149 20 46 5 85 12 87 14 6 6 -38 44 -79 66 -38 21
-156 35 -204 25z"/>
<path d="M2163 5150 c-30 -12 -56 -55 -48 -80 7 -23 0 -22 125 -19 180 4 187
7 137 51 -57 50 -155 72 -214 48z"/>
<path d="M2583 4910 c-40 -24 -42 -47 -5 -54 63 -12 152 -17 152 -9 0 28 -67
83 -102 83 -7 0 -28 -9 -45 -20z"/>
<path d="M1360 4763 c-25 -2 -49 -8 -54 -14 -6 -5 -18 -9 -28 -9 -28 0 -120
-44 -156 -75 -38 -31 -31 -49 13 -36 64 20 127 31 175 31 55 0 63 -8 74 -75 5
-30 16 -46 41 -65 19 -14 40 -41 46 -60 7 -19 18 -41 26 -48 13 -13 10 -32 -6
-32 -5 0 -20 12 -34 26 -15 14 -43 32 -64 39 -37 13 -38 14 -40 65 -2 59 -11
70 -61 70 -82 0 -157 -69 -192 -178 -12 -36 -17 -69 -13 -73 5 -5 35 7 66 26
63 38 107 44 128 19 21 -25 86 -64 107 -64 11 0 36 -12 57 -26 21 -14 49 -24
64 -24 45 3 51 1 51 -25 0 -56 39 -102 105 -124 22 -8 51 -22 64 -32 13 -11
36 -19 52 -19 15 0 30 -3 33 -8 7 -11 -21 -110 -44 -156 -31 -63 -9 -65 56 -5
67 64 96 107 113 170 11 40 11 51 -4 79 l-17 33 -64 -7 -64 -7 -14 36 c-9 20
-25 50 -37 67 -18 25 -19 32 -8 39 34 21 182 -7 242 -47 46 -30 104 -91 113
-116 4 -15 18 -18 87 -18 69 0 84 -3 104 -22 21 -20 34 -22 162 -22 158 -1
156 -2 77 72 -48 45 -54 60 -34 80 14 14 96 16 130 3 13 -5 41 -14 63 -21 99
-31 309 -155 404 -239 47 -40 59 -29 21 19 -62 78 -236 199 -395 274 -112 53
-179 79 -353 136 -173 57 -218 52 -208 -23 3 -22 13 -53 21 -70 21 -41 19 -47
-12 -47 -18 0 -43 16 -79 50 -50 47 -148 101 -235 129 -19 6 -73 11 -120 11
-98 1 -137 16 -182 71 -31 40 -38 82 -24 155 14 72 -32 99 -153 87z"/>
<path d="M4455 4595 c-5 -2 -44 -14 -85 -26 -122 -37 -242 -106 -260 -150 -6
-14 -29 -43 -51 -65 -43 -42 -50 -74 -23 -112 18 -26 61 -29 90 -7 10 8 38 15
60 15 36 0 47 -5 78 -40 36 -40 66 -99 66 -130 0 -10 -10 -25 -23 -33 -13 -8
-40 -39 -60 -68 -33 -49 -37 -63 -47 -157 -12 -129 -19 -142 -69 -142 -52 0
-93 39 -132 127 -126 283 -201 367 -398 450 -30 13 -60 23 -68 23 -29 0 -10
-20 43 -47 70 -35 179 -125 217 -179 30 -43 46 -91 54 -161 6 -53 -10 -57 -53
-12 -33 36 -108 89 -123 89 -18 0 -13 -19 13 -53 29 -38 77 -139 105 -223 29
-84 29 -228 1 -284 -11 -22 -24 -40 -28 -40 -4 0 -20 27 -35 60 -43 93 -54 81
-59 -62 -6 -133 -30 -219 -83 -299 -14 -22 -21 -39 -17 -39 16 0 192 115 242
158 37 32 61 65 88 120 36 75 38 77 76 80 29 3 44 -2 63 -20 31 -28 63 -99 63
-139 0 -35 -24 -95 -47 -121 -13 -14 -14 -21 -5 -30 10 -10 26 2 71 50 83 86
121 156 121 220 0 62 22 82 88 82 38 0 44 3 39 18 -35 112 -57 214 -57 261 0
54 2 59 43 96 75 71 79 71 135 17 27 -26 52 -57 56 -69 4 -12 22 -31 41 -42
34 -20 46 -53 25 -66 -5 -3 -10 -19 -10 -35 0 -21 9 -35 31 -51 29 -20 35 -21
68 -9 50 17 60 27 83 79 11 25 25 55 31 66 40 73 48 99 45 152 -2 34 -8 58
-15 61 -7 2 -13 -4 -13 -15 0 -36 -86 -143 -115 -143 -17 0 -115 149 -115 175
0 13 -7 28 -15 35 -22 19 -18 49 8 59 43 16 50 34 37 93 -7 29 -10 71 -8 93
l3 40 55 -3 c59 -3 154 -32 208 -63 36 -20 62 -25 62 -10 0 13 -102 104 -136
121 -16 8 -54 29 -85 47 -52 32 -62 34 -169 38 -95 3 -118 1 -132 -12 -26 -24
-23 -36 27 -94 33 -39 45 -61 45 -85 0 -75 -51 -40 -100 69 -29 64 -34 70 -85
93 -31 13 -55 30 -55 39 0 8 41 50 92 92 145 123 144 122 128 122 -8 0 -19 -2
-25 -4z"/>
<path d="M2680 4122 c0 -5 36 -32 81 -61 89 -59 98 -80 38 -95 -36 -9 -42 -7
-116 32 -13 7 -32 17 -43 22 -26 13 -146 13 -171 0 -28 -16 -24 -34 23 -101
47 -66 46 -86 -8 -101 -24 -7 -46 0 -124 39 -52 25 -111 51 -130 56 -56 15
-150 20 -150 8 0 -6 5 -11 12 -11 6 0 45 -16 85 -36 61 -31 84 -49 133 -109
109 -134 162 -165 276 -165 88 0 151 16 159 40 3 9 -8 49 -25 90 -16 40 -30
79 -30 86 0 21 40 26 110 13 36 -6 81 -14 100 -16 48 -8 77 -29 105 -78 34
-57 33 -124 -1 -194 -15 -28 -24 -55 -21 -58 11 -10 94 86 117 134 48 101 3
253 -104 350 -51 47 -178 118 -265 148 -51 18 -51 18 -51 7z"/>
<path d="M2240 2844 c-8 -2 -55 -8 -105 -14 -127 -13 -265 -37 -350 -60 -22
-6 -56 -15 -75 -20 -119 -29 -135 -35 -230 -78 -55 -24 -151 -95 -197 -145
-149 -162 -145 -411 13 -648 25 -38 50 -69 55 -69 12 0 12 3 -5 47 -59 161
-78 280 -64 409 9 82 37 145 91 202 80 85 181 132 392 183 22 6 58 14 80 20
79 19 152 29 280 39 146 12 171 22 181 75 10 53 -13 73 -66 59z"/>
</g>
</svg>
